<?xml version="1.0" encoding="utf-8"?>
<!-- Generator: Adobe Illustrator 27.8.1, SVG Export Plug-In . SVG Version: 6.00 Build 0)  -->
<svg version="1.1" id="Layer_1" xmlns="http://www.w3.org/2000/svg" xmlns:xlink="http://www.w3.org/1999/xlink" x="0px" y="0px"
	 viewBox="0 0 500 500" style="enable-background:new 0 0 500 500;" xml:space="preserve">
<style type="text/css">
	.st0{fill:#68CBDB;}
	.st1{fill:none;}
	.st2{fill:#FFFFFF;}
	.st3{font-family:'HackNF-Bold';}
	.st4{font-size:100px;}
</style>
<path class="st0" d="M387.4,222.45h-7.16c0.33-3.66,0.49-7.37,0.49-11.11c0-70.88-58.53-128.35-130.73-128.35
	s-130.73,57.47-130.73,128.35c0,3.74,0.16,7.45,0.49,11.11h-7.16l-54.41,54.41C82.35,357.84,159.08,417.02,250,417.02
	s167.65-59.18,191.81-140.16L387.4,222.45z M153.34,211.34c0-52.41,43.28-94.89,96.66-94.89s96.66,42.48,96.66,94.89
	c0,3.76-0.22,7.47-0.67,11.11H154.01C153.56,218.8,153.34,215.09,153.34,211.34z"/>
<rect x="157.69" y="251.79" class="st1" width="182.62" height="86.41"/>
<text transform="matrix(1 0 0 1 158.6924 327.7706)" class="st2 st3 st4">&lt;/&gt;</text>
</svg>
